<svg width="720" height="779" xmlns="http://www.w3.org/2000/svg"><g><path d="M-15.373387425206602,-51.86594999860972L-29.166400702670217,18.996412404812872L16.709477305412292,-8.88350426685065Z" fill="#f0f6fc" stroke="#f0f6fc"></path><path d="M-15.373387425206602,-51.86594999860972L16.709477305412292,-8.88350426685065L82.25918501615524,-59.816997572779655Z" fill="#ebf3fa" stroke="#ebf3fa"></path><path d="M16.709477305412292,-8.88350426685065L-29.166400702670217,18.996412404812872L27.564489087089896,38.28079186845571Z" fill="#ecf4fb" stroke="#ecf4fb"></path><path d="M16.709477305412292,-8.88350426685065L27.564489087089896,38.28079186845571L78.66035259794444,9.939698288217187Z" fill="#e8f2f9" stroke="#e8f2f9"></path><path d="M16.709477305412292,-8.88350426685065L78.66035259794444,9.939698288217187L82.25918501615524,-59.816997572779655Z" fill="#e7f1f9" stroke="#e7f1f9"></path><path d="M82.25918501615524,-59.816997572779655L78.66035259794444,9.939698288217187L155.36382494028658,-8.941115238703787Z" fill="#e1eef6" stroke="#e1eef6"></path><path d="M82.25918501615524,-59.816997572779655L155.36382494028658,-8.941115238703787L233.50602557882667,-44.34830076992512Z" fill="#daeaf4" stroke="#daeaf4"></path><path d="M82.25918501615524,-59.816997572779655L233.50602557882667,-44.34830076992512L426.93866048008204,-52.232620222494006Z" fill="#cde4f0" stroke="#cde4f0"></path><path d="M155.36382494028658,-8.941115238703787L78.66035259794444,9.939698288217187L98.17414512857795,60.83377354312688Z" fill="#ddedf6" stroke="#ddedf6"></path><path d="M155.36382494028658,-8.941115238703787L98.17414512857795,60.83377354312688L179.9080243287608,53.09807613026351Z" fill="#d7eaf5" stroke="#d7eaf5"></path><path d="M155.36382494028658,-8.941115238703787L179.9080243287608,53.09807613026351L193.52167166769505,11.774254865013063Z" fill="#d5e9f3" stroke="#d5e9f3"></path><path d="M155.36382494028658,-8.941115238703787L193.52167166769505,11.774254865013063L233.50602557882667,-44.34830076992512Z" fill="#d5e8f2" stroke="#d5e8f2"></path><path d="M233.50602557882667,-44.34830076992512L193.52167166769505,11.774254865013063L284.54457986634225,-1.8928014719858766Z" fill="#cfe5f0" stroke="#cfe5f0"></path><path d="M233.50602557882667,-44.34830076992512L284.54457986634225,-1.8928014719858766L335.9562039608136,-28.848842452280223Z" fill="#c5deed" stroke="#c5deed"></path><path d="M233.50602557882667,-44.34830076992512L335.9562039608136,-28.848842452280223L426.93866048008204,-52.232620222494006Z" fill="#bad7e9" stroke="#bad7e9"></path><path d="M284.54457986634225,-1.8928014719858766L193.52167166769505,11.774254865013063L284.2556373216212,50.52579008974135Z" fill="#c9e2ef" stroke="#c9e2ef"></path><path d="M284.54457986634225,-1.8928014719858766L284.2556373216212,50.52579008974135L339.45623374544084,25.6526364851743Z" fill="#bedbec" stroke="#bedbec"></path><path d="M284.54457986634225,-1.8928014719858766L339.45623374544084,25.6526364851743L335.9562039608136,-28.848842452280223Z" fill="#bdd9ea" stroke="#bdd9ea"></path><path d="M335.9562039608136,-28.848842452280223L339.45623374544084,25.6526364851743L368.92050912603736,-16.46593328565359Z" fill="#b6d5e8" stroke="#b6d5e8"></path><path d="M335.9562039608136,-28.848842452280223L368.92050912603736,-16.46593328565359L426.93866048008204,-52.232620222494006Z" fill="#b0d0e6" stroke="#b0d0e6"></path><path d="M368.92050912603736,-16.46593328565359L339.45623374544084,25.6526364851743L392.9332208773121,41.520164483226836Z" fill="#b0d1e7" stroke="#b0d1e7"></path><path d="M368.92050912603736,-16.46593328565359L392.9332208773121,41.520164483226836L426.93866048008204,-52.232620222494006Z" fill="#abcde5" stroke="#abcde5"></path><path d="M426.93866048008204,-52.232620222494006L392.9332208773121,41.520164483226836L425.6140562798828,56.44918518606573Z" fill="#a5cae3" stroke="#a5cae3"></path><path d="M426.93866048008204,-52.232620222494006L425.6140562798828,56.44918518606573L508.10130099300295,28.89886190649122Z" fill="#9dc4e0" stroke="#9dc4e0"></path><path d="M426.93866048008204,-52.232620222494006L508.10130099300295,28.89886190649122L514.4289700174704,-47.57567223161459Z" fill="#98c0de" stroke="#98c0de"></path><path d="M426.93866048008204,-52.232620222494006L514.4289700174704,-47.57567223161459L775.492830905132,-41.29913523327559Z" fill="#83b3d7" stroke="#83b3d7"></path><path d="M514.4289700174704,-47.57567223161459L508.10130099300295,28.89886190649122L552.330140392296,3.3069785870611668Z" fill="#8ebadb" stroke="#8ebadb"></path><path d="M514.4289700174704,-47.57567223161459L552.330140392296,3.3069785870611668L587.9801795259118,-37.2375068301335Z" fill="#88b6d9" stroke="#88b6d9"></path><path d="M514.4289700174704,-47.57567223161459L587.9801795259118,-37.2375068301335L775.492830905132,-41.29913523327559Z" fill="#80abd3" stroke="#80abd3"></path><path d="M587.9801795259118,-37.2375068301335L552.330140392296,3.3069785870611668L610.1440083933994,6.290501332841814Z" fill="#81b1d6" stroke="#81b1d6"></path><path d="M587.9801795259118,-37.2375068301335L610.1440083933994,6.290501332841814L620.4958778712898,-8.60777139198035Z" fill="#80aed5" stroke="#80aed5"></path><path d="M587.9801795259118,-37.2375068301335L620.4958778712898,-8.60777139198035L695.6027032574639,-8.281490500085056Z" fill="#80aad3" stroke="#80aad3"></path><path d="M587.9801795259118,-37.2375068301335L695.6027032574639,-8.281490500085056L775.492830905132,-41.29913523327559Z" fill="#80a2cf" stroke="#80a2cf"></path><path d="M620.4958778712898,-8.60777139198035L610.1440083933994,6.290501332841814L694.0206501586363,50.68601839710027Z" fill="#7ea8d2" stroke="#7ea8d2"></path><path d="M620.4958778712898,-8.60777139198035L694.0206501586363,50.68601839710027L695.6027032574639,-8.281490500085056Z" fill="#7ea4d0" stroke="#7ea4d0"></path><path d="M695.6027032574639,-8.281490500085056L694.0206501586363,50.68601839710027L744.2528836475685,16.763555612415075Z" fill="#7d9ecd" stroke="#7d9ecd"></path><path d="M695.6027032574639,-8.281490500085056L744.2528836475685,16.763555612415075L775.492830905132,-41.29913523327559Z" fill="#809acb" stroke="#809acb"></path><path d="M775.492830905132,-41.29913523327559L744.2528836475685,16.763555612415075L752.8689507488161,66.2372059514746Z" fill="#7e97c9" stroke="#7e97c9"></path><path d="M775.492830905132,-41.29913523327559L752.8689507488161,66.2372059514746L765.3982000378892,170.50699029117823Z" fill="#7794c9" stroke="#7794c9"></path><path d="M775.492830905132,-41.29913523327559L765.3982000378892,170.50699029117823L777.9000684991479,383.0008313572034Z" fill="#6a90c8" stroke="#6a90c8"></path><path d="M-29.166400702670217,18.996412404812872L-37.35327412839979,63.88347314670682L27.564489087089896,38.28079186845571Z" fill="#ebf5fc" stroke="#ebf5fc"></path><path d="M27.564489087089896,38.28079186845571L-37.35327412839979,63.88347314670682L35.83251987118274,97.55875043570995Z" fill="#e5f3fb" stroke="#e5f3fb"></path><path d="M27.564489087089896,38.28079186845571L35.83251987118274,97.55875043570995L98.17414512857795,60.83377354312688Z" fill="#dff0f9" stroke="#dff0f9"></path><path d="M27.564489087089896,38.28079186845571L98.17414512857795,60.83377354312688L78.66035259794444,9.939698288217187Z" fill="#e1f0f8" stroke="#e1f0f8"></path><path d="M179.9080243287608,53.09807613026351L98.17414512857795,60.83377354312688L174.4264553161338,91.45513127557933Z" fill="#d2e9f4" stroke="#d2e9f4"></path><path d="M179.9080243287608,53.09807613026351L174.4264553161338,91.45513127557933L228.2412736862898,115.95649778377265Z" fill="#cae5f2" stroke="#cae5f2"></path><path d="M179.9080243287608,53.09807613026351L228.2412736862898,115.95649778377265L279.5533624989912,60.48622392117977Z" fill="#c6e3f1" stroke="#c6e3f1"></path><path d="M179.9080243287608,53.09807613026351L279.5533624989912,60.48622392117977L193.52167166769505,11.774254865013063Z" fill="#cce5f1" stroke="#cce5f1"></path><path d="M193.52167166769505,11.774254865013063L279.5533624989912,60.48622392117977L284.2556373216212,50.52579008974135Z" fill="#c6e2ef" stroke="#c6e2ef"></path><path d="M284.2556373216212,50.52579008974135L279.5533624989912,60.48622392117977L314.35685239266604,74.34589995536953Z" fill="#bbdbec" stroke="#bbdbec"></path><path d="M284.2556373216212,50.52579008974135L314.35685239266604,74.34589995536953L339.45623374544084,25.6526364851743Z" fill="#b8d8eb" stroke="#b8d8eb"></path><path d="M339.45623374544084,25.6526364851743L314.35685239266604,74.34589995536953L392.9332208773121,41.520164483226836Z" fill="#b0d3e8" stroke="#b0d3e8"></path><path d="M392.9332208773121,41.520164483226836L314.35685239266604,74.34589995536953L417.45968628209084,79.82768749818206Z" fill="#a8cfe6" stroke="#a8cfe6"></path><path d="M392.9332208773121,41.520164483226836L417.45968628209084,79.82768749818206L425.6140562798828,56.44918518606573Z" fill="#a0c9e3" stroke="#a0c9e3"></path><path d="M425.6140562798828,56.44918518606573L417.45968628209084,79.82768749818206L465.3115017944947,98.53502581827343Z" fill="#98c5e2" stroke="#98c5e2"></path><path d="M425.6140562798828,56.44918518606573L465.3115017944947,98.53502581827343L508.10130099300295,28.89886190649122Z" fill="#93c1df" stroke="#93c1df"></path><path d="M508.10130099300295,28.89886190649122L465.3115017944947,98.53502581827343L534.3908414896578,109.51972912531346Z" fill="#89bbdd" stroke="#89bbdd"></path><path d="M508.10130099300295,28.89886190649122L534.3908414896578,109.51972912531346L556.6371253179386,61.03018683381379Z" fill="#84b7da" stroke="#84b7da"></path><path d="M508.10130099300295,28.89886190649122L556.6371253179386,61.03018683381379L552.330140392296,3.3069785870611668Z" fill="#87b7da" stroke="#87b7da"></path><path d="M552.330140392296,3.3069785870611668L556.6371253179386,61.03018683381379L610.1440083933994,6.290501332841814Z" fill="#80b2d7" stroke="#80b2d7"></path><path d="M610.1440083933994,6.290501332841814L556.6371253179386,61.03018683381379L645.2490625111386,95.69268351886421Z" fill="#79add5" stroke="#79add5"></path><path d="M610.1440083933994,6.290501332841814L645.2490625111386,95.69268351886421L669.4903097301722,70.50582830328494Z" fill="#78a7d2" stroke="#78a7d2"></path><path d="M610.1440083933994,6.290501332841814L669.4903097301722,70.50582830328494L694.0206501586363,50.68601839710027Z" fill="#7aa5d1" stroke="#7aa5d1"></path><path d="M694.0206501586363,50.68601839710027L669.4903097301722,70.50582830328494L679.702969333157,137.6971816783771Z" fill="#75a0cf" stroke="#75a0cf"></path><path d="M694.0206501586363,50.68601839710027L679.702969333157,137.6971816783771L752.8689507488161,66.2372059514746Z" fill="#759ccd" stroke="#759ccd"></path><path d="M694.0206501586363,50.68601839710027L752.8689507488161,66.2372059514746L744.2528836475685,16.763555612415075Z" fill="#7a9acb" stroke="#7a9acb"></path><path d="M-37.35327412839979,63.88347314670682L-54.8137819301337,209.5815220568329L-29.95000254828483,155.12861085589975Z" fill="#e2f4fd" stroke="#e2f4fd"></path><path d="M-37.35327412839979,63.88347314670682L-29.95000254828483,155.12861085589975L19.922359082847834,142.21685101278126Z" fill="#e1f3fc" stroke="#e1f3fc"></path><path d="M-37.35327412839979,63.88347314670682L19.922359082847834,142.21685101278126L35.83251987118274,97.55875043570995Z" fill="#e1f2fb" stroke="#e1f2fb"></path><path d="M35.83251987118274,97.55875043570995L19.922359082847834,142.21685101278126L61.93119709845632,128.56531196739525Z" fill="#daeff9" stroke="#daeff9"></path><path d="M35.83251987118274,97.55875043570995L61.93119709845632,128.56531196739525L98.17414512857795,60.83377354312688Z" fill="#daeef8" stroke="#daeef8"></path><path d="M98.17414512857795,60.83377354312688L61.93119709845632,128.56531196739525L174.4264553161338,91.45513127557933Z" fill="#d4ebf6" stroke="#d4ebf6"></path><path d="M174.4264553161338,91.45513127557933L61.93119709845632,128.56531196739525L144.36701387632638,176.19837898761034Z" fill="#cde9f5" stroke="#cde9f5"></path><path d="M174.4264553161338,91.45513127557933L144.36701387632638,176.19837898761034L189.46595360990614,121.25857328530401Z" fill="#c8e6f3" stroke="#c8e6f3"></path><path d="M174.4264553161338,91.45513127557933L189.46595360990614,121.25857328530401L228.2412736862898,115.95649778377265Z" fill="#c6e5f2" stroke="#c6e5f2"></path><path d="M228.2412736862898,115.95649778377265L189.46595360990614,121.25857328530401L248.87833592947572,165.64457438886166Z" fill="#c0e2f1" stroke="#c0e2f1"></path><path d="M228.2412736862898,115.95649778377265L248.87833592947572,165.64457438886166L304.9944172007963,131.77419342566282Z" fill="#b8deef" stroke="#b8deef"></path><path d="M228.2412736862898,115.95649778377265L304.9944172007963,131.77419342566282L279.5533624989912,60.48622392117977Z" fill="#baddee" stroke="#baddee"></path><path d="M279.5533624989912,60.48622392117977L304.9944172007963,131.77419342566282L314.35685239266604,74.34589995536953Z" fill="#b6d9ec" stroke="#b6d9ec"></path><path d="M314.35685239266604,74.34589995536953L304.9944172007963,131.77419342566282L417.45968628209084,79.82768749818206Z" fill="#aad2e8" stroke="#aad2e8"></path><path d="M417.45968628209084,79.82768749818206L304.9944172007963,131.77419342566282L401.8771507870406,164.1926054097712Z" fill="#a0cde6" stroke="#a0cde6"></path><path d="M417.45968628209084,79.82768749818206L401.8771507870406,164.1926054097712L421.3177077099681,145.97426493186504Z" fill="#96c7e3" stroke="#96c7e3"></path><path d="M417.45968628209084,79.82768749818206L421.3177077099681,145.97426493186504L465.3115017944947,98.53502581827343Z" fill="#95c5e2" stroke="#95c5e2"></path><path d="M465.3115017944947,98.53502581827343L421.3177077099681,145.97426493186504L449.6175806969404,182.42074944544584Z" fill="#8ec2e1" stroke="#8ec2e1"></path><path d="M465.3115017944947,98.53502581827343L449.6175806969404,182.42074944544584L494.3292357539758,179.5696264738217Z" fill="#87bedf" stroke="#87bedf"></path><path d="M465.3115017944947,98.53502581827343L494.3292357539758,179.5696264738217L534.3908414896578,109.51972912531346Z" fill="#84bbdd" stroke="#84bbdd"></path><path d="M534.3908414896578,109.51972912531346L494.3292357539758,179.5696264738217L584.4327887194231,129.3616128154099Z" fill="#79b4da" stroke="#79b4da"></path><path d="M534.3908414896578,109.51972912531346L584.4327887194231,129.3616128154099L556.6371253179386,61.03018683381379Z" fill="#79b2d8" stroke="#79b2d8"></path><path d="M556.6371253179386,61.03018683381379L584.4327887194231,129.3616128154099L610.8230499504134,121.21625814121217Z" fill="#73aed6" stroke="#73aed6"></path><path d="M556.6371253179386,61.03018683381379L610.8230499504134,121.21625814121217L645.2490625111386,95.69268351886421Z" fill="#74acd5" stroke="#74acd5"></path><path d="M645.2490625111386,95.69268351886421L610.8230499504134,121.21625814121217L679.702969333157,137.6971816783771Z" fill="#71a5d2" stroke="#71a5d2"></path><path d="M645.2490625111386,95.69268351886421L679.702969333157,137.6971816783771L669.4903097301722,70.50582830328494Z" fill="#73a3d0" stroke="#73a3d0"></path><path d="M752.8689507488161,66.2372059514746L679.702969333157,137.6971816783771L765.3982000378892,170.50699029117823Z" fill="#7097cb" stroke="#7097cb"></path><path d="M-29.95000254828483,155.12861085589975L-54.8137819301337,209.5815220568329L49.36650713905692,215.90490818023682Z" fill="#d7f1fc" stroke="#d7f1fc"></path><path d="M-29.95000254828483,155.12861085589975L49.36650713905692,215.90490818023682L19.922359082847834,142.21685101278126Z" fill="#d7f0fb" stroke="#d7f0fb"></path><path d="M19.922359082847834,142.21685101278126L49.36650713905692,215.90490818023682L61.93119709845632,128.56531196739525Z" fill="#d4eef9" stroke="#d4eef9"></path><path d="M61.93119709845632,128.56531196739525L49.36650713905692,215.90490818023682L144.36701387632638,176.19837898761034Z" fill="#cdebf7" stroke="#cdebf7"></path><path d="M144.36701387632638,176.19837898761034L49.36650713905692,215.90490818023682L111.86584120150656,229.0146537590772Z" fill="#c7e9f7" stroke="#c7e9f7"></path><path d="M144.36701387632638,176.19837898761034L111.86584120150656,229.0146537590772L158.01697191316634,186.56543257646263Z" fill="#c3e6f5" stroke="#c3e6f5"></path><path d="M144.36701387632638,176.19837898761034L158.01697191316634,186.56543257646263L189.46595360990614,121.25857328530401Z" fill="#c4e5f4" stroke="#c4e5f4"></path><path d="M189.46595360990614,121.25857328530401L158.01697191316634,186.56543257646263L217.35153345856816,192.43306401651353Z" fill="#c0e4f3" stroke="#c0e4f3"></path><path d="M189.46595360990614,121.25857328530401L217.35153345856816,192.43306401651353L248.87833592947572,165.64457438886166Z" fill="#bde2f1" stroke="#bde2f1"></path><path d="M248.87833592947572,165.64457438886166L217.35153345856816,192.43306401651353L276.0891992971301,180.91343434061855Z" fill="#b6dff0" stroke="#b6dff0"></path><path d="M248.87833592947572,165.64457438886166L276.0891992971301,180.91343434061855L304.9944172007963,131.77419342566282Z" fill="#b2dbee" stroke="#b2dbee"></path><path d="M304.9944172007963,131.77419342566282L276.0891992971301,180.91343434061855L309.30591132491827,238.19298772607Z" fill="#aad7ec" stroke="#aad7ec"></path><path d="M304.9944172007963,131.77419342566282L309.30591132491827,238.19298772607L398.696700995788,199.09150624182075Z" fill="#a0d1e9" stroke="#a0d1e9"></path><path d="M304.9944172007963,131.77419342566282L398.696700995788,199.09150624182075L401.8771507870406,164.1926054097712Z" fill="#9ccde7" stroke="#9ccde7"></path><path d="M401.8771507870406,164.1926054097712L398.696700995788,199.09150624182075L449.6175806969404,182.42074944544584Z" fill="#8fc5e3" stroke="#8fc5e3"></path><path d="M401.8771507870406,164.1926054097712L449.6175806969404,182.42074944544584L421.3177077099681,145.97426493186504Z" fill="#90c5e2" stroke="#90c5e2"></path><path d="M494.3292357539758,179.5696264738217L449.6175806969404,182.42074944544584L500.87426783982664,191.7050410201773Z" fill="#80bcde" stroke="#80bcde"></path><path d="M494.3292357539758,179.5696264738217L500.87426783982664,191.7050410201773L584.4327887194231,129.3616128154099Z" fill="#78b5db" stroke="#78b5db"></path><path d="M584.4327887194231,129.3616128154099L500.87426783982664,191.7050410201773L591.5977089945227,180.54422507062554Z" fill="#71b0d8" stroke="#71b0d8"></path><path d="M584.4327887194231,129.3616128154099L591.5977089945227,180.54422507062554L610.8230499504134,121.21625814121217Z" fill="#6dabd6" stroke="#6dabd6"></path><path d="M610.8230499504134,121.21625814121217L591.5977089945227,180.54422507062554L666.197192100808,196.59211944323033Z" fill="#6aa7d4" stroke="#6aa7d4"></path><path d="M610.8230499504134,121.21625814121217L666.197192100808,196.59211944323033L679.702969333157,137.6971816783771Z" fill="#6ca3d1" stroke="#6ca3d1"></path><path d="M679.702969333157,137.6971816783771L666.197192100808,196.59211944323033L729.2091646883637,209.2447498999536Z" fill="#689cce" stroke="#689cce"></path><path d="M679.702969333157,137.6971816783771L729.2091646883637,209.2447498999536L765.3982000378892,170.50699029117823Z" fill="#6998cc" stroke="#6998cc"></path><path d="M765.3982000378892,170.50699029117823L729.2091646883637,209.2447498999536L761.3820746680722,245.4337093513459Z" fill="#6592ca" stroke="#6592ca"></path><path d="M765.3982000378892,170.50699029117823L761.3820746680722,245.4337093513459L777.9000684991479,383.0008313572034Z" fill="#5d8ec8" stroke="#5d8ec8"></path><path d="M-54.8137819301337,209.5815220568329L-59.287234330549836,357.0129343075678L-29.213000158779323,248.73565267771482Z" fill="#d1f0fd" stroke="#d1f0fd"></path><path d="M-54.8137819301337,209.5815220568329L-29.213000158779323,248.73565267771482L49.36650713905692,215.90490818023682Z" fill="#d3f0fc" stroke="#d3f0fc"></path><path d="M49.36650713905692,215.90490818023682L-29.213000158779323,248.73565267771482L24.08695722464472,277.03972892370075Z" fill="#cdeefb" stroke="#cdeefb"></path><path d="M49.36650713905692,215.90490818023682L24.08695722464472,277.03972892370075L89.31171380449086,299.7950753895566Z" fill="#c5eaf8" stroke="#c5eaf8"></path><path d="M49.36650713905692,215.90490818023682L89.31171380449086,299.7950753895566L111.86584120150656,229.0146537590772Z" fill="#c4e9f7" stroke="#c4e9f7"></path><path d="M111.86584120150656,229.0146537590772L89.31171380449086,299.7950753895566L160.779451970011,278.9947193535045Z" fill="#bbe4f5" stroke="#bbe4f5"></path><path d="M111.86584120150656,229.0146537590772L160.779451970011,278.9947193535045L158.01697191316634,186.56543257646263Z" fill="#bee5f5" stroke="#bee5f5"></path><path d="M158.01697191316634,186.56543257646263L160.779451970011,278.9947193535045L231.301648914814,244.54730284865946Z" fill="#b8e2f3" stroke="#b8e2f3"></path><path d="M158.01697191316634,186.56543257646263L231.301648914814,244.54730284865946L217.35153345856816,192.43306401651353Z" fill="#b9e2f2" stroke="#b9e2f2"></path><path d="M217.35153345856816,192.43306401651353L231.301648914814,244.54730284865946L276.0891992971301,180.91343434061855Z" fill="#b4dff0" stroke="#b4dff0"></path><path d="M276.0891992971301,180.91343434061855L231.301648914814,244.54730284865946L309.30591132491827,238.19298772607Z" fill="#abdaee" stroke="#abdaee"></path><path d="M309.30591132491827,238.19298772607L231.301648914814,244.54730284865946L292.6594641013071,264.6889531938359Z" fill="#a6d9ed" stroke="#a6d9ed"></path><path d="M309.30591132491827,238.19298772607L292.6594641013071,264.6889531938359L300.52283607423306,259.3895352166146Z" fill="#a0d5ec" stroke="#a0d5ec"></path><path d="M309.30591132491827,238.19298772607L300.52283607423306,259.3895352166146L416.038680751808,277.15732898097485Z" fill="#96cee9" stroke="#96cee9"></path><path d="M309.30591132491827,238.19298772607L416.038680751808,277.15732898097485L398.696700995788,199.09150624182075Z" fill="#92cae6" stroke="#92cae6"></path><path d="M398.696700995788,199.09150624182075L416.038680751808,277.15732898097485L439.58785575348884,276.53969395905733Z" fill="#86c3e3" stroke="#86c3e3"></path><path d="M398.696700995788,199.09150624182075L439.58785575348884,276.53969395905733L449.6175806969404,182.42074944544584Z" fill="#87c2e2" stroke="#87c2e2"></path><path d="M449.6175806969404,182.42074944544584L439.58785575348884,276.53969395905733L493.78785288892686,255.42201025877148Z" fill="#7ebde0" stroke="#7ebde0"></path><path d="M449.6175806969404,182.42074944544584L493.78785288892686,255.42201025877148L500.87426783982664,191.7050410201773Z" fill="#7dbbde" stroke="#7dbbde"></path><path d="M500.87426783982664,191.7050410201773L493.78785288892686,255.42201025877148L574.3835054431111,258.08659228496253Z" fill="#70b4db" stroke="#70b4db"></path><path d="M500.87426783982664,191.7050410201773L574.3835054431111,258.08659228496253L591.5977089945227,180.54422507062554Z" fill="#6cb0d9" stroke="#6cb0d9"></path><path d="M591.5977089945227,180.54422507062554L574.3835054431111,258.08659228496253L651.6687863459811,222.328105350025Z" fill="#63a8d5" stroke="#63a8d5"></path><path d="M591.5977089945227,180.54422507062554L651.6687863459811,222.328105350025L666.197192100808,196.59211944323033Z" fill="#66a4d3" stroke="#66a4d3"></path><path d="M651.6687863459811,222.328105350025L574.3835054431111,258.08659228496253L619.4995978614315,268.46800913102925Z" fill="#60a6d4" stroke="#60a6d4"></path><path d="M651.6687863459811,222.328105350025L619.4995978614315,268.46800913102925L710.3689593728632,294.32117470074445Z" fill="#5e9ed1" stroke="#5e9ed1"></path><path d="M651.6687863459811,222.328105350025L710.3689593728632,294.32117470074445L729.2091646883637,209.2447498999536Z" fill="#619ace" stroke="#619ace"></path><path d="M651.6687863459811,222.328105350025L729.2091646883637,209.2447498999536L666.197192100808,196.59211944323033Z" fill="#659dcf" stroke="#659dcf"></path><path d="M729.2091646883637,209.2447498999536L710.3689593728632,294.32117470074445L761.3820746680722,245.4337093513459Z" fill="#6094cb" stroke="#6094cb"></path><path d="M-29.213000158779323,248.73565267771482L-59.287234330549836,357.0129343075678L12.064381199888885,319.6108231320977Z" fill="#c5e8f9" stroke="#c5e8f9"></path><path d="M-29.213000158779323,248.73565267771482L12.064381199888885,319.6108231320977L24.08695722464472,277.03972892370075Z" fill="#c7ebfa" stroke="#c7ebfa"></path><path d="M24.08695722464472,277.03972892370075L12.064381199888885,319.6108231320977L87.77973405551165,309.8676379211247Z" fill="#bde4f7" stroke="#bde4f7"></path><path d="M24.08695722464472,277.03972892370075L87.77973405551165,309.8676379211247L89.31171380449086,299.7950753895566Z" fill="#bbe4f6" stroke="#bbe4f6"></path><path d="M89.31171380449086,299.7950753895566L87.77973405551165,309.8676379211247L137.55514792632312,312.86468788515776Z" fill="#b3dff3" stroke="#b3dff3"></path><path d="M89.31171380449086,299.7950753895566L137.55514792632312,312.86468788515776L160.779451970011,278.9947193535045Z" fill="#b3dff3" stroke="#b3dff3"></path><path d="M160.779451970011,278.9947193535045L137.55514792632312,312.86468788515776L230.13212218880653,337.047919370234Z" fill="#a9daf0" stroke="#a9daf0"></path><path d="M160.779451970011,278.9947193535045L230.13212218880653,337.047919370234L247.13895368389785,309.7051044506952Z" fill="#a5d8ef" stroke="#a5d8ef"></path><path d="M160.779451970011,278.9947193535045L247.13895368389785,309.7051044506952L231.301648914814,244.54730284865946Z" fill="#acddf0" stroke="#acddf0"></path><path d="M231.301648914814,244.54730284865946L247.13895368389785,309.7051044506952L292.6594641013071,264.6889531938359Z" fill="#a6d9ee" stroke="#a6d9ee"></path><path d="M292.6594641013071,264.6889531938359L247.13895368389785,309.7051044506952L333.960748356767,344.2248340928927Z" fill="#96cfea" stroke="#96cfea"></path><path d="M292.6594641013071,264.6889531938359L333.960748356767,344.2248340928927L300.52283607423306,259.3895352166146Z" fill="#96ceea" stroke="#96ceea"></path><path d="M300.52283607423306,259.3895352166146L333.960748356767,344.2248340928927L404.6409476129338,322.66432652715594Z" fill="#89c6e5" stroke="#89c6e5"></path><path d="M300.52283607423306,259.3895352166146L404.6409476129338,322.66432652715594L416.038680751808,277.15732898097485Z" fill="#88c5e5" stroke="#88c5e5"></path><path d="M416.038680751808,277.15732898097485L404.6409476129338,322.66432652715594L439.58785575348884,276.53969395905733Z" fill="#7cbde1" stroke="#7cbde1"></path><path d="M439.58785575348884,276.53969395905733L404.6409476129338,322.66432652715594L449.5153933111578,349.72053091507405Z" fill="#74b8de" stroke="#74b8de"></path><path d="M439.58785575348884,276.53969395905733L449.5153933111578,349.72053091507405L510.17664718441665,315.914137205109Z" fill="#6cb3dc" stroke="#6cb3dc"></path><path d="M439.58785575348884,276.53969395905733L510.17664718441665,315.914137205109L493.78785288892686,255.42201025877148Z" fill="#71b6dd" stroke="#71b6dd"></path><path d="M493.78785288892686,255.42201025877148L510.17664718441665,315.914137205109L574.3835054431111,258.08659228496253Z" fill="#68b0da" stroke="#68b0da"></path><path d="M574.3835054431111,258.08659228496253L510.17664718441665,315.914137205109L579.3866512924433,304.5653092302382Z" fill="#5da9d7" stroke="#5da9d7"></path><path d="M574.3835054431111,258.08659228496253L579.3866512924433,304.5653092302382L619.4995978614315,268.46800913102925Z" fill="#5aa6d5" stroke="#5aa6d5"></path><path d="M619.4995978614315,268.46800913102925L579.3866512924433,304.5653092302382L623.925791666843,331.49774234276265Z" fill="#54a0d2" stroke="#54a0d2"></path><path d="M619.4995978614315,268.46800913102925L623.925791666843,331.49774234276265L689.2909980006516,333.4728292096406Z" fill="#5199cf" stroke="#5199cf"></path><path d="M619.4995978614315,268.46800913102925L689.2909980006516,333.4728292096406L710.3689593728632,294.32117470074445Z" fill="#5496cd" stroke="#5496cd"></path><path d="M710.3689593728632,294.32117470074445L689.2909980006516,333.4728292096406L732.8989004530013,330.2892968757078Z" fill="#4f8dc9" stroke="#4f8dc9"></path><path d="M710.3689593728632,294.32117470074445L732.8989004530013,330.2892968757078L761.3820746680722,245.4337093513459Z" fill="#578fc9" stroke="#578fc9"></path><path d="M761.3820746680722,245.4337093513459L732.8989004530013,330.2892968757078L777.9000684991479,383.0008313572034Z" fill="#4f86c6" stroke="#4f86c6"></path><path d="M-59.287234330549836,357.0129343075678L-56.16700317710638,556.5597477788106L-50.35712879151106,460.78229050152004Z" fill="#a3d1f2" stroke="#a3d1f2"></path><path d="M-59.287234330549836,357.0129343075678L-50.35712879151106,460.78229050152004L-36.63234139792621,393.71654922142625Z" fill="#b0daf5" stroke="#b0daf5"></path><path d="M-59.287234330549836,357.0129343075678L-36.63234139792621,393.71654922142625L12.064381199888885,319.6108231320977Z" fill="#b8e0f7" stroke="#b8e0f7"></path><path d="M12.064381199888885,319.6108231320977L-36.63234139792621,393.71654922142625L21.276626768521965,404.6514993952587Z" fill="#b1dcf5" stroke="#b1dcf5"></path><path d="M12.064381199888885,319.6108231320977L21.276626768521965,404.6514993952587L97.01914062257856,370.26897262316197Z" fill="#addaf3" stroke="#addaf3"></path><path d="M12.064381199888885,319.6108231320977L97.01914062257856,370.26897262316197L87.77973405551165,309.8676379211247Z" fill="#b2def4" stroke="#b2def4"></path><path d="M87.77973405551165,309.8676379211247L97.01914062257856,370.26897262316197L137.55514792632312,312.86468788515776Z" fill="#addbf2" stroke="#addbf2"></path><path d="M137.55514792632312,312.86468788515776L97.01914062257856,370.26897262316197L147.62208337895572,369.8015268612653Z" fill="#a5d6f0" stroke="#a5d6f0"></path><path d="M137.55514792632312,312.86468788515776L147.62208337895572,369.8015268612653L230.13212218880653,337.047919370234Z" fill="#a2d5ef" stroke="#a2d5ef"></path><path d="M230.13212218880653,337.047919370234L147.62208337895572,369.8015268612653L236.26260843593627,396.4647407317534Z" fill="#97ceec" stroke="#97ceec"></path><path d="M230.13212218880653,337.047919370234L236.26260843593627,396.4647407317534L272.2005229862407,400.9903493989259Z" fill="#8ec9e9" stroke="#8ec9e9"></path><path d="M230.13212218880653,337.047919370234L272.2005229862407,400.9903493989259L247.13895368389785,309.7051044506952Z" fill="#95cdeb" stroke="#95cdeb"></path><path d="M247.13895368389785,309.7051044506952L272.2005229862407,400.9903493989259L333.960748356767,344.2248340928927Z" fill="#8cc8e7" stroke="#8cc8e7"></path><path d="M333.960748356767,344.2248340928927L272.2005229862407,400.9903493989259L339.06956321094185,403.174186097458Z" fill="#7dbee4" stroke="#7dbee4"></path><path d="M333.960748356767,344.2248340928927L339.06956321094185,403.174186097458L400.6779285147786,397.3930426966399Z" fill="#74b8e0" stroke="#74b8e0"></path><path d="M333.960748356767,344.2248340928927L400.6779285147786,397.3930426966399L404.6409476129338,322.66432652715594Z" fill="#76b9e0" stroke="#76b9e0"></path><path d="M404.6409476129338,322.66432652715594L400.6779285147786,397.3930426966399L449.5153933111578,349.72053091507405Z" fill="#6cb3dd" stroke="#6cb3dd"></path><path d="M449.5153933111578,349.72053091507405L400.6779285147786,397.3930426966399L431.49855451192707,415.3526738611981Z" fill="#63addb" stroke="#63addb"></path><path d="M449.5153933111578,349.72053091507405L431.49855451192707,415.3526738611981L507.8833442274481,366.9890025258064Z" fill="#5da9d9" stroke="#5da9d9"></path><path d="M449.5153933111578,349.72053091507405L507.8833442274481,366.9890025258064L510.17664718441665,315.914137205109Z" fill="#60aad9" stroke="#60aad9"></path><path d="M510.17664718441665,315.914137205109L507.8833442274481,366.9890025258064L579.3866512924433,304.5653092302382Z" fill="#59a6d6" stroke="#59a6d6"></path><path d="M579.3866512924433,304.5653092302382L507.8833442274481,366.9890025258064L601.5020933188498,390.5495176417753Z" fill="#4c9ed3" stroke="#4c9ed3"></path><path d="M579.3866512924433,304.5653092302382L601.5020933188498,390.5495176417753L623.925791666843,331.49774234276265Z" fill="#4a9ad0" stroke="#4a9ad0"></path><path d="M623.925791666843,331.49774234276265L601.5020933188498,390.5495176417753L661.7436777614057,422.7964723762125Z" fill="#408fcc" stroke="#408fcc"></path><path d="M623.925791666843,331.49774234276265L661.7436777614057,422.7964723762125L689.2909980006516,333.4728292096406Z" fill="#448ecb" stroke="#448ecb"></path><path d="M689.2909980006516,333.4728292096406L661.7436777614057,422.7964723762125L708.0773428687826,361.1360416514799Z" fill="#4288c8" stroke="#4288c8"></path><path d="M689.2909980006516,333.4728292096406L708.0773428687826,361.1360416514799L732.8989004530013,330.2892968757078Z" fill="#4a8ac8" stroke="#4a8ac8"></path><path d="M732.8989004530013,330.2892968757078L708.0773428687826,361.1360416514799L777.9000684991479,383.0008313572034Z" fill="#4682c5" stroke="#4682c5"></path><path d="M-36.63234139792621,393.71654922142625L-50.35712879151106,460.78229050152004L21.276626768521965,404.6514993952587Z" fill="#a8d5f3" stroke="#a8d5f3"></path><path d="M21.276626768521965,404.6514993952587L-50.35712879151106,460.78229050152004L15.19939182791859,476.65774333756417Z" fill="#9fd0f0" stroke="#9fd0f0"></path><path d="M21.276626768521965,404.6514993952587L15.19939182791859,476.65774333756417L65.08394668344408,454.329364313744Z" fill="#9acdef" stroke="#9acdef"></path><path d="M21.276626768521965,404.6514993952587L65.08394668344408,454.329364313744L97.01914062257856,370.26897262316197Z" fill="#a0d1f0" stroke="#a0d1f0"></path><path d="M97.01914062257856,370.26897262316197L65.08394668344408,454.329364313744L168.16837581340224,458.40278826188296Z" fill="#95cbed" stroke="#95cbed"></path><path d="M97.01914062257856,370.26897262316197L168.16837581340224,458.40278826188296L147.62208337895572,369.8015268612653Z" fill="#98ceed" stroke="#98ceed"></path><path d="M147.62208337895572,369.8015268612653L168.16837581340224,458.40278826188296L236.26260843593627,396.4647407317534Z" fill="#90c9ea" stroke="#90c9ea"></path><path d="M236.26260843593627,396.4647407317534L168.16837581340224,458.40278826188296L226.14916435908526,471.1433924222365Z" fill="#84c2e7" stroke="#84c2e7"></path><path d="M236.26260843593627,396.4647407317534L226.14916435908526,471.1433924222365L272.2005229862407,400.9903493989259Z" fill="#83c2e6" stroke="#83c2e6"></path><path d="M272.2005229862407,400.9903493989259L226.14916435908526,471.1433924222365L292.35025361180305,443.13264027703553Z" fill="#7bbde4" stroke="#7bbde4"></path><path d="M272.2005229862407,400.9903493989259L292.35025361180305,443.13264027703553L317.1338032046333,421.0245356429368Z" fill="#79bbe3" stroke="#79bbe3"></path><path d="M272.2005229862407,400.9903493989259L317.1338032046333,421.0245356429368L339.06956321094185,403.174186097458Z" fill="#78bbe3" stroke="#78bbe3"></path><path d="M339.06956321094185,403.174186097458L317.1338032046333,421.0245356429368L365.01086755190045,420.46312188729644Z" fill="#6fb5e0" stroke="#6fb5e0"></path><path d="M339.06956321094185,403.174186097458L365.01086755190045,420.46312188729644L400.6779285147786,397.3930426966399Z" fill="#6bb2de" stroke="#6bb2de"></path><path d="M400.6779285147786,397.3930426966399L365.01086755190045,420.46312188729644L431.49855451192707,415.3526738611981Z" fill="#63addc" stroke="#63addc"></path><path d="M431.49855451192707,415.3526738611981L365.01086755190045,420.46312188729644L445.0942293461412,512.6533411117271Z" fill="#56a4d8" stroke="#56a4d8"></path><path d="M431.49855451192707,415.3526738611981L445.0942293461412,512.6533411117271L469.76063950918615,441.4410369610414Z" fill="#4c9ed5" stroke="#4c9ed5"></path><path d="M431.49855451192707,415.3526738611981L469.76063950918615,441.4410369610414L507.8833442274481,366.9890025258064Z" fill="#54a3d7" stroke="#54a3d7"></path><path d="M507.8833442274481,366.9890025258064L469.76063950918615,441.4410369610414L563.523329263553,411.2234743544832Z" fill="#4a9cd3" stroke="#4a9cd3"></path><path d="M507.8833442274481,366.9890025258064L563.523329263553,411.2234743544832L601.5020933188498,390.5495176417753Z" fill="#4599d1" stroke="#4599d1"></path><path d="M563.523329263553,411.2234743544832L469.76063950918615,441.4410369610414L480.4222506657243,458.2468601921573Z" fill="#4599d2" stroke="#4599d2"></path><path d="M563.523329263553,411.2234743544832L480.4222506657243,458.2468601921573L518.8883110508323,508.42181929852813Z" fill="#3b93d0" stroke="#3b93d0"></path><path d="M563.523329263553,411.2234743544832L518.8883110508323,508.42181929852813L592.1039958391339,439.32026772759855Z" fill="#348ecd" stroke="#348ecd"></path><path d="M563.523329263553,411.2234743544832L592.1039958391339,439.32026772759855L601.5020933188498,390.5495176417753Z" fill="#3890cd" stroke="#3890cd"></path><path d="M601.5020933188498,390.5495176417753L592.1039958391339,439.32026772759855L661.7436777614057,422.7964723762125Z" fill="#378bcb" stroke="#378bcb"></path><path d="M708.0773428687826,361.1360416514799L661.7436777614057,422.7964723762125L752.1695850184187,422.8017036477104Z" fill="#3b80c5" stroke="#3b80c5"></path><path d="M708.0773428687826,361.1360416514799L752.1695850184187,422.8017036477104L777.9000684991479,383.0008313572034Z" fill="#3e7cc3" stroke="#3e7cc3"></path><path d="M777.9000684991479,383.0008313572034L752.1695850184187,422.8017036477104L778.3281327411532,583.6262990953401Z" fill="#2b6dbd" stroke="#2b6dbd"></path><path d="M-50.35712879151106,460.78229050152004L-56.16700317710638,556.5597477788106L-38.97065074648708,499.0855972934514Z" fill="#96c9ef" stroke="#96c9ef"></path><path d="M-50.35712879151106,460.78229050152004L-38.97065074648708,499.0855972934514L15.19939182791859,476.65774333756417Z" fill="#9acbf0" stroke="#9acbf0"></path><path d="M15.19939182791859,476.65774333756417L-38.97065074648708,499.0855972934514L27.585047716274858,483.08225497137755Z" fill="#95c9ee" stroke="#95c9ee"></path><path d="M15.19939182791859,476.65774333756417L27.585047716274858,483.08225497137755L65.08394668344408,454.329364313744Z" fill="#93c9ee" stroke="#93c9ee"></path><path d="M65.08394668344408,454.329364313744L27.585047716274858,483.08225497137755L98.95715271122754,494.88388240803033Z" fill="#8ec6ec" stroke="#8ec6ec"></path><path d="M65.08394668344408,454.329364313744L98.95715271122754,494.88388240803033L168.16837581340224,458.40278826188296Z" fill="#8ac4ea" stroke="#8ac4ea"></path><path d="M168.16837581340224,458.40278826188296L98.95715271122754,494.88388240803033L121.22427172958851,531.3998760189861Z" fill="#81bee8" stroke="#81bee8"></path><path d="M168.16837581340224,458.40278826188296L121.22427172958851,531.3998760189861L146.29500932525843,551.1381808295846Z" fill="#7abae6" stroke="#7abae6"></path><path d="M168.16837581340224,458.40278826188296L146.29500932525843,551.1381808295846L224.0650051413104,481.8528731307015Z" fill="#7abae6" stroke="#7abae6"></path><path d="M168.16837581340224,458.40278826188296L224.0650051413104,481.8528731307015L226.14916435908526,471.1433924222365Z" fill="#7dbde6" stroke="#7dbde6"></path><path d="M226.14916435908526,471.1433924222365L224.0650051413104,481.8528731307015L255.92586496844888,488.9720037113875Z" fill="#76bae3" stroke="#76bae3"></path><path d="M226.14916435908526,471.1433924222365L255.92586496844888,488.9720037113875L292.35025361180305,443.13264027703553Z" fill="#75b9e3" stroke="#75b9e3"></path><path d="M292.35025361180305,443.13264027703553L255.92586496844888,488.9720037113875L316.13658238202333,498.72557658702135Z" fill="#6cb3e0" stroke="#6cb3e0"></path><path d="M292.35025361180305,443.13264027703553L316.13658238202333,498.72557658702135L317.1338032046333,421.0245356429368Z" fill="#6db3e0" stroke="#6db3e0"></path><path d="M317.1338032046333,421.0245356429368L316.13658238202333,498.72557658702135L365.01086755190045,420.46312188729644Z" fill="#69b1de" stroke="#69b1de"></path><path d="M365.01086755190045,420.46312188729644L316.13658238202333,498.72557658702135L411.5548846917227,536.2188586033881Z" fill="#59a6da" stroke="#59a6da"></path><path d="M365.01086755190045,420.46312188729644L411.5548846917227,536.2188586033881L445.0942293461412,512.6533411117271Z" fill="#4e9fd6" stroke="#4e9fd6"></path><path d="M469.76063950918615,441.4410369610414L445.0942293461412,512.6533411117271L480.4222506657243,458.2468601921573Z" fill="#4599d3" stroke="#4599d3"></path><path d="M480.4222506657243,458.2468601921573L445.0942293461412,512.6533411117271L518.8883110508323,508.42181929852813Z" fill="#3c93d1" stroke="#3c93d1"></path><path d="M592.1039958391339,439.32026772759855L518.8883110508323,508.42181929852813L599.3036528024822,536.8275363603607Z" fill="#2785ca" stroke="#2785ca"></path><path d="M592.1039958391339,439.32026772759855L599.3036528024822,536.8275363603607L652.326191724278,489.7523608105257Z" fill="#2580c7" stroke="#2580c7"></path><path d="M592.1039958391339,439.32026772759855L652.326191724278,489.7523608105257L658.9844498410821,455.71800135076046Z" fill="#2c81c7" stroke="#2c81c7"></path><path d="M592.1039958391339,439.32026772759855L658.9844498410821,455.71800135076046L661.7436777614057,422.7964723762125Z" fill="#3185c8" stroke="#3185c8"></path><path d="M658.9844498410821,455.71800135076046L652.326191724278,489.7523608105257L676.4905074331909,493.2337575685233Z" fill="#277ac4" stroke="#277ac4"></path><path d="M658.9844498410821,455.71800135076046L676.4905074331909,493.2337575685233L752.1695850184187,422.8017036477104Z" fill="#2d79c3" stroke="#2d79c3"></path><path d="M658.9844498410821,455.71800135076046L752.1695850184187,422.8017036477104L661.7436777614057,422.7964723762125Z" fill="#337dc4" stroke="#337dc4"></path><path d="M752.1695850184187,422.8017036477104L676.4905074331909,493.2337575685233L731.7959571769461,505.6812250893563Z" fill="#2972c0" stroke="#2972c0"></path><path d="M752.1695850184187,422.8017036477104L731.7959571769461,505.6812250893563L778.3281327411532,583.6262990953401Z" fill="#2168bc" stroke="#2168bc"></path><path d="M-38.97065074648708,499.0855972934514L-56.16700317710638,556.5597477788106L6.290277144871652,575.8096987428144Z" fill="#8ac1ec" stroke="#8ac1ec"></path><path d="M-38.97065074648708,499.0855972934514L6.290277144871652,575.8096987428144L27.585047716274858,483.08225497137755Z" fill="#8cc3ec" stroke="#8cc3ec"></path><path d="M27.585047716274858,483.08225497137755L6.290277144871652,575.8096987428144L99.99461906030774,558.4543198021129Z" fill="#81bde9" stroke="#81bde9"></path><path d="M27.585047716274858,483.08225497137755L99.99461906030774,558.4543198021129L98.95715271122754,494.88388240803033Z" fill="#84bfe9" stroke="#84bfe9"></path><path d="M98.95715271122754,494.88388240803033L99.99461906030774,558.4543198021129L121.22427172958851,531.3998760189861Z" fill="#7cbae7" stroke="#7cbae7"></path><path d="M121.22427172958851,531.3998760189861L99.99461906030774,558.4543198021129L146.29500932525843,551.1381808295846Z" fill="#75b6e5" stroke="#75b6e5"></path><path d="M224.0650051413104,481.8528731307015L146.29500932525843,551.1381808295846L180.861762505956,565.5010921927169Z" fill="#70b5e3" stroke="#70b5e3"></path><path d="M224.0650051413104,481.8528731307015L180.861762505956,565.5010921927169L255.92586496844888,488.9720037113875Z" fill="#71b5e3" stroke="#71b5e3"></path><path d="M255.92586496844888,488.9720037113875L180.861762505956,565.5010921927169L245.08584934752434,599.1007348056883Z" fill="#66aee0" stroke="#66aee0"></path><path d="M255.92586496844888,488.9720037113875L245.08584934752434,599.1007348056883L316.13658238202333,498.72557658702135Z" fill="#62acde" stroke="#62acde"></path><path d="M316.13658238202333,498.72557658702135L245.08584934752434,599.1007348056883L320.35286720842123,617.852213694714Z" fill="#53a2da" stroke="#53a2da"></path><path d="M316.13658238202333,498.72557658702135L320.35286720842123,617.852213694714L356.3871065340936,585.4130441509187Z" fill="#4c9dd7" stroke="#4c9dd7"></path><path d="M316.13658238202333,498.72557658702135L356.3871065340936,585.4130441509187L411.5548846917227,536.2188586033881Z" fill="#4c9dd7" stroke="#4c9dd7"></path><path d="M411.5548846917227,536.2188586033881L356.3871065340936,585.4130441509187L405.695695085451,575.3000702150166Z" fill="#3e95d3" stroke="#3e95d3"></path><path d="M411.5548846917227,536.2188586033881L405.695695085451,575.3000702150166L469.41806194838136,554.3479632725939Z" fill="#3890d1" stroke="#3890d1"></path><path d="M411.5548846917227,536.2188586033881L469.41806194838136,554.3479632725939L445.0942293461412,512.6533411117271Z" fill="#3a92d1" stroke="#3a92d1"></path><path d="M445.0942293461412,512.6533411117271L469.41806194838136,554.3479632725939L518.8883110508323,508.42181929852813Z" fill="#358ecf" stroke="#358ecf"></path><path d="M518.8883110508323,508.42181929852813L469.41806194838136,554.3479632725939L520.6944307079539,570.4860387789086Z" fill="#2a87cc" stroke="#2a87cc"></path><path d="M518.8883110508323,508.42181929852813L520.6944307079539,570.4860387789086L567.9447317216545,580.92706176918Z" fill="#2181c9" stroke="#2181c9"></path><path d="M518.8883110508323,508.42181929852813L567.9447317216545,580.92706176918L599.3036528024822,536.8275363603607Z" fill="#1e7ec8" stroke="#1e7ec8"></path><path d="M599.3036528024822,536.8275363603607L567.9447317216545,580.92706176918L623.5521501302719,596.0276585211977Z" fill="#1075c3" stroke="#1075c3"></path><path d="M599.3036528024822,536.8275363603607L623.5521501302719,596.0276585211977L677.5651170825586,569.7585677308962Z" fill="#1170c1" stroke="#1170c1"></path><path d="M599.3036528024822,536.8275363603607L677.5651170825586,569.7585677308962L652.326191724278,489.7523608105257Z" fill="#1a74c3" stroke="#1a74c3"></path><path d="M652.326191724278,489.7523608105257L677.5651170825586,569.7585677308962L676.4905074331909,493.2337575685233Z" fill="#1e73c1" stroke="#1e73c1"></path><path d="M676.4905074331909,493.2337575685233L677.5651170825586,569.7585677308962L731.7959571769461,505.6812250893563Z" fill="#1c6ebf" stroke="#1c6ebf"></path><path d="M731.7959571769461,505.6812250893563L677.5651170825586,569.7585677308962L778.3281327411532,583.6262990953401Z" fill="#1564bb" stroke="#1564bb"></path><path d="M-56.16700317710638,556.5597477788106L-12.686719838529825,789.3190677976236L-20.69250224623829,669.5573702361435Z" fill="#73ace5" stroke="#73ace5"></path><path d="M-56.16700317710638,556.5597477788106L-20.69250224623829,669.5573702361435L-29.613490174524486,621.9841350568458Z" fill="#79b6e8" stroke="#79b6e8"></path><path d="M-56.16700317710638,556.5597477788106L-29.613490174524486,621.9841350568458L6.290277144871652,575.8096987428144Z" fill="#7fbae9" stroke="#7fbae9"></path><path d="M6.290277144871652,575.8096987428144L-29.613490174524486,621.9841350568458L15.573477912694216,653.75343776308Z" fill="#74b3e7" stroke="#74b3e7"></path><path d="M6.290277144871652,575.8096987428144L15.573477912694216,653.75343776308L99.4327840860933,628.3170923497528Z" fill="#6eb0e4" stroke="#6eb0e4"></path><path d="M6.290277144871652,575.8096987428144L99.4327840860933,628.3170923497528L99.99461906030774,558.4543198021129Z" fill="#72b3e5" stroke="#72b3e5"></path><path d="M99.99461906030774,558.4543198021129L99.4327840860933,628.3170923497528L146.29500932525843,551.1381808295846Z" fill="#6eb1e3" stroke="#6eb1e3"></path><path d="M146.29500932525843,551.1381808295846L99.4327840860933,628.3170923497528L175.57102443650365,610.9074654383585Z" fill="#66ade1" stroke="#66ade1"></path><path d="M146.29500932525843,551.1381808295846L175.57102443650365,610.9074654383585L180.861762505956,565.5010921927169Z" fill="#68aee1" stroke="#68aee1"></path><path d="M180.861762505956,565.5010921927169L175.57102443650365,610.9074654383585L245.08584934752434,599.1007348056883Z" fill="#60a9df" stroke="#60a9df"></path><path d="M245.08584934752434,599.1007348056883L175.57102443650365,610.9074654383585L233.20808872114867,627.3912756890059Z" fill="#58a5dd" stroke="#58a5dd"></path><path d="M245.08584934752434,599.1007348056883L233.20808872114867,627.3912756890059L245.9572120103985,609.3168015265837Z" fill="#55a3dc" stroke="#55a3dc"></path><path d="M245.08584934752434,599.1007348056883L245.9572120103985,609.3168015265837L320.35286720842123,617.852213694714Z" fill="#4f9fda" stroke="#4f9fda"></path><path d="M356.3871065340936,585.4130441509187L320.35286720842123,617.852213694714L412.8530955919996,618.3082378702238Z" fill="#3a92d3" stroke="#3a92d3"></path><path d="M356.3871065340936,585.4130441509187L412.8530955919996,618.3082378702238L405.695695085451,575.3000702150166Z" fill="#3790d1" stroke="#3790d1"></path><path d="M405.695695085451,575.3000702150166L412.8530955919996,618.3082378702238L473.1717708148062,620.277164443396Z" fill="#2b88ce" stroke="#2b88ce"></path><path d="M405.695695085451,575.3000702150166L473.1717708148062,620.277164443396L469.41806194838136,554.3479632725939Z" fill="#2d89ce" stroke="#2d89ce"></path><path d="M469.41806194838136,554.3479632725939L473.1717708148062,620.277164443396L518.2666835468262,605.6877754814923Z" fill="#2281ca" stroke="#2281ca"></path><path d="M469.41806194838136,554.3479632725939L518.2666835468262,605.6877754814923L520.6944307079539,570.4860387789086Z" fill="#2282ca" stroke="#2282ca"></path><path d="M520.6944307079539,570.4860387789086L518.2666835468262,605.6877754814923L553.896407741122,600.8924960391596Z" fill="#187bc7" stroke="#187bc7"></path><path d="M520.6944307079539,570.4860387789086L553.896407741122,600.8924960391596L567.9447317216545,580.92706176918Z" fill="#167ac7" stroke="#167ac7"></path><path d="M567.9447317216545,580.92706176918L553.896407741122,600.8924960391596L623.5521501302719,596.0276585211977Z" fill="#0c73c4" stroke="#0c73c4"></path><path d="M623.5521501302719,596.0276585211977L553.896407741122,600.8924960391596L638.3405475597829,635.3661982342601Z" fill="#066dc0" stroke="#066dc0"></path><path d="M623.5521501302719,596.0276585211977L638.3405475597829,635.3661982342601L677.5651170825586,569.7585677308962Z" fill="#0968be" stroke="#0968be"></path><path d="M677.5651170825586,569.7585677308962L638.3405475597829,635.3661982342601L711.885773325339,656.912041939795Z" fill="#0460bb" stroke="#0460bb"></path><path d="M677.5651170825586,569.7585677308962L711.885773325339,656.912041939795L766.095723984763,629.2681170254946Z" fill="#045ab8" stroke="#045ab8"></path><path d="M677.5651170825586,569.7585677308962L766.095723984763,629.2681170254946L778.3281327411532,583.6262990953401Z" fill="#0b5bb7" stroke="#0b5bb7"></path><path d="M778.3281327411532,583.6262990953401L766.095723984763,629.2681170254946L761.4340084511787,689.0621540369466Z" fill="#0150b3" stroke="#0150b3"></path><path d="M778.3281327411532,583.6262990953401L761.4340084511787,689.0621540369466L773.6834117257968,797.7331059984863Z" fill="#0047af" stroke="#0047af"></path><path d="M-29.613490174524486,621.9841350568458L-20.69250224623829,669.5573702361435L15.573477912694216,653.75343776308Z" fill="#71afe5" stroke="#71afe5"></path><path d="M15.573477912694216,653.75343776308L-20.69250224623829,669.5573702361435L49.491993435658514,702.2541428217664Z" fill="#6da8e3" stroke="#6da8e3"></path><path d="M15.573477912694216,653.75343776308L49.491993435658514,702.2541428217664L99.4327840860933,628.3170923497528Z" fill="#68a8e2" stroke="#68a8e2"></path><path d="M99.4327840860933,628.3170923497528L49.491993435658514,702.2541428217664L90.50612725317478,696.4271566970274Z" fill="#65a4e0" stroke="#65a4e0"></path><path d="M99.4327840860933,628.3170923497528L90.50612725317478,696.4271566970274L179.1119619878009,702.608165871352Z" fill="#5fa1de" stroke="#5fa1de"></path><path d="M99.4327840860933,628.3170923497528L179.1119619878009,702.608165871352L175.57102443650365,610.9074654383585Z" fill="#5ba4de" stroke="#5ba4de"></path><path d="M175.57102443650365,610.9074654383585L179.1119619878009,702.608165871352L207.4782640999183,692.2975030168891Z" fill="#569edb" stroke="#569edb"></path><path d="M175.57102443650365,610.9074654383585L207.4782640999183,692.2975030168891L233.20808872114867,627.3912756890059Z" fill="#54a1dc" stroke="#54a1dc"></path><path d="M233.20808872114867,627.3912756890059L207.4782640999183,692.2975030168891L251.80468131322414,661.5612049028277Z" fill="#509cda" stroke="#509cda"></path><path d="M233.20808872114867,627.3912756890059L251.80468131322414,661.5612049028277L245.9572120103985,609.3168015265837Z" fill="#4f9fda" stroke="#4f9fda"></path><path d="M245.9572120103985,609.3168015265837L251.80468131322414,661.5612049028277L320.35286720842123,617.852213694714Z" fill="#499bd8" stroke="#499bd8"></path><path d="M320.35286720842123,617.852213694714L251.80468131322414,661.5612049028277L326.97185025550425,669.4766961364076Z" fill="#4294d5" stroke="#4294d5"></path><path d="M320.35286720842123,617.852213694714L326.97185025550425,669.4766961364076L412.8530955919996,618.3082378702238Z" fill="#368fd2" stroke="#368fd2"></path><path d="M412.8530955919996,618.3082378702238L326.97185025550425,669.4766961364076L373.8628184655681,702.959661623463Z" fill="#3187cf" stroke="#3187cf"></path><path d="M412.8530955919996,618.3082378702238L373.8628184655681,702.959661623463L438.9631364727393,671.956203491427Z" fill="#2981cc" stroke="#2981cc"></path><path d="M412.8530955919996,618.3082378702238L438.9631364727393,671.956203491427L473.1717708148062,620.277164443396Z" fill="#2181cb" stroke="#2181cb"></path><path d="M473.1717708148062,620.277164443396L438.9631364727393,671.956203491427L494.9294639797881,693.4380403859541Z" fill="#1b79c8" stroke="#1b79c8"></path><path d="M473.1717708148062,620.277164443396L494.9294639797881,693.4380403859541L518.2666835468262,605.6877754814923Z" fill="#1578c7" stroke="#1578c7"></path><path d="M518.2666835468262,605.6877754814923L494.9294639797881,693.4380403859541L553.896407741122,600.8924960391596Z" fill="#1075c6" stroke="#1075c6"></path><path d="M553.896407741122,600.8924960391596L494.9294639797881,693.4380403859541L573.1762641761452,713.7203116714954Z" fill="#0b6dc2" stroke="#0b6dc2"></path><path d="M553.896407741122,600.8924960391596L573.1762641761452,713.7203116714954L625.3521329071373,669.6565748238936Z" fill="#0168bf" stroke="#0168bf"></path><path d="M553.896407741122,600.8924960391596L625.3521329071373,669.6565748238936L638.3405475597829,635.3661982342601Z" fill="#0069bf" stroke="#0069bf"></path><path d="M638.3405475597829,635.3661982342601L625.3521329071373,669.6565748238936L712.3794747842476,666.907039959915Z" fill="#005dba" stroke="#005dba"></path><path d="M638.3405475597829,635.3661982342601L712.3794747842476,666.907039959915L711.885773325339,656.912041939795Z" fill="#005ab8" stroke="#005ab8"></path><path d="M711.885773325339,656.912041939795L712.3794747842476,666.907039959915L761.4340084511787,689.0621540369466Z" fill="#0050b4" stroke="#0050b4"></path><path d="M711.885773325339,656.912041939795L761.4340084511787,689.0621540369466L766.095723984763,629.2681170254946Z" fill="#0050b3" stroke="#0050b3"></path><path d="M-20.69250224623829,669.5573702361435L-12.686719838529825,789.3190677976236L-6.114288889802992,772.2325279936194Z" fill="#719fe0" stroke="#719fe0"></path><path d="M-20.69250224623829,669.5573702361435L-6.114288889802992,772.2325279936194L49.491993435658514,702.2541428217664Z" fill="#6ea2e0" stroke="#6ea2e0"></path><path d="M49.491993435658514,702.2541428217664L-6.114288889802992,772.2325279936194L25.80138229764998,766.6633181786165Z" fill="#6c9cde" stroke="#6c9cde"></path><path d="M49.491993435658514,702.2541428217664L25.80138229764998,766.6633181786165L72.84050549380481,763.2828946178779Z" fill="#699bdd" stroke="#699bdd"></path><path d="M49.491993435658514,702.2541428217664L72.84050549380481,763.2828946178779L90.50612725317478,696.4271566970274Z" fill="#669ddd" stroke="#669ddd"></path><path d="M90.50612725317478,696.4271566970274L72.84050549380481,763.2828946178779L164.16762535460293,733.2859065430239Z" fill="#6199db" stroke="#6199db"></path><path d="M90.50612725317478,696.4271566970274L164.16762535460293,733.2859065430239L179.1119619878009,702.608165871352Z" fill="#5c9adb" stroke="#5c9adb"></path><path d="M179.1119619878009,702.608165871352L164.16762535460293,733.2859065430239L193.09085306245834,761.1116347135976Z" fill="#5793d8" stroke="#5793d8"></path><path d="M179.1119619878009,702.608165871352L193.09085306245834,761.1116347135976L207.4782640999183,692.2975030168891Z" fill="#5595d8" stroke="#5595d8"></path><path d="M207.4782640999183,692.2975030168891L193.09085306245834,761.1116347135976L262.02598184812814,728.1175080500543Z" fill="#5292d6" stroke="#5292d6"></path><path d="M207.4782640999183,692.2975030168891L262.02598184812814,728.1175080500543L251.80468131322414,661.5612049028277Z" fill="#4f96d7" stroke="#4f96d7"></path><path d="M251.80468131322414,661.5612049028277L262.02598184812814,728.1175080500543L326.97185025550425,669.4766961364076Z" fill="#4691d5" stroke="#4691d5"></path><path d="M326.97185025550425,669.4766961364076L262.02598184812814,728.1175080500543L309.2780931573361,758.3187979878858Z" fill="#4289d1" stroke="#4289d1"></path><path d="M326.97185025550425,669.4766961364076L309.2780931573361,758.3187979878858L373.8628184655681,702.959661623463Z" fill="#3985cf" stroke="#3985cf"></path><path d="M373.8628184655681,702.959661623463L309.2780931573361,758.3187979878858L416.19788526557386,733.356523476541Z" fill="#337dcb" stroke="#337dcb"></path><path d="M373.8628184655681,702.959661623463L416.19788526557386,733.356523476541L438.9631364727393,671.956203491427Z" fill="#297bca" stroke="#297bca"></path><path d="M438.9631364727393,671.956203491427L416.19788526557386,733.356523476541L464.61136578116566,738.7154440116137Z" fill="#2274c7" stroke="#2274c7"></path><path d="M438.9631364727393,671.956203491427L464.61136578116566,738.7154440116137L494.9294639797881,693.4380403859541Z" fill="#1c73c6" stroke="#1c73c6"></path><path d="M494.9294639797881,693.4380403859541L464.61136578116566,738.7154440116137L535.4702034825459,747.9929614719003Z" fill="#1569c2" stroke="#1569c2"></path><path d="M494.9294639797881,693.4380403859541L535.4702034825459,747.9929614719003L557.8239749511704,736.3705819426104Z" fill="#0e65c0" stroke="#0e65c0"></path><path d="M494.9294639797881,693.4380403859541L557.8239749511704,736.3705819426104L573.1762641761452,713.7203116714954Z" fill="#0b65bf" stroke="#0b65bf"></path><path d="M573.1762641761452,713.7203116714954L557.8239749511704,736.3705819426104L643.9287555590272,739.4006109517068Z" fill="#005bbb" stroke="#005bbb"></path><path d="M573.1762641761452,713.7203116714954L643.9287555590272,739.4006109517068L625.3521329071373,669.6565748238936Z" fill="#005cba" stroke="#005cba"></path><path d="M625.3521329071373,669.6565748238936L643.9287555590272,739.4006109517068L712.3794747842476,666.907039959915Z" fill="#0057b8" stroke="#0057b8"></path><path d="M712.3794747842476,666.907039959915L643.9287555590272,739.4006109517068L688.8948762835935,766.2566712358966Z" fill="#004eb4" stroke="#004eb4"></path><path d="M712.3794747842476,666.907039959915L688.8948762835935,766.2566712358966L745.8353225514293,740.7150170160457Z" fill="#0049b2" stroke="#0049b2"></path><path d="M712.3794747842476,666.907039959915L745.8353225514293,740.7150170160457L761.4340084511787,689.0621540369466Z" fill="#004ab1" stroke="#004ab1"></path><path d="M761.4340084511787,689.0621540369466L745.8353225514293,740.7150170160457L773.6834117257968,797.7331059984863Z" fill="#0040ad" stroke="#0040ad"></path><path d="M-6.114288889802992,772.2325279936194L-12.686719838529825,789.3190677976236L25.80138229764998,766.6633181786165Z" fill="#6f99dd" stroke="#6f99dd"></path><path d="M25.80138229764998,766.6633181786165L-12.686719838529825,789.3190677976236L5.34275715239346,838.8295156834647Z" fill="#6e95dc" stroke="#6e95dc"></path><path d="M25.80138229764998,766.6633181786165L5.34275715239346,838.8295156834647L84.54639664851129,829.1812651930377Z" fill="#6a90d9" stroke="#6a90d9"></path><path d="M25.80138229764998,766.6633181786165L84.54639664851129,829.1812651930377L72.84050549380481,763.2828946178779Z" fill="#6793da" stroke="#6793da"></path><path d="M72.84050549380481,763.2828946178779L84.54639664851129,829.1812651930377L135.15598196536303,832.7167891524732Z" fill="#628dd7" stroke="#628dd7"></path><path d="M72.84050549380481,763.2828946178779L135.15598196536303,832.7167891524732L164.16762535460293,733.2859065430239Z" fill="#5f90d8" stroke="#5f90d8"></path><path d="M164.16762535460293,733.2859065430239L135.15598196536303,832.7167891524732L193.09085306245834,761.1116347135976Z" fill="#598dd6" stroke="#598dd6"></path><path d="M193.09085306245834,761.1116347135976L135.15598196536303,832.7167891524732L224.87143727950752,820.8489717682824Z" fill="#5787d3" stroke="#5787d3"></path><path d="M193.09085306245834,761.1116347135976L224.87143727950752,820.8489717682824L262.02598184812814,728.1175080500543Z" fill="#518ad3" stroke="#518ad3"></path><path d="M262.02598184812814,728.1175080500543L224.87143727950752,820.8489717682824L269.5411021169275,823.2148058060557Z" fill="#4c84d1" stroke="#4c84d1"></path><path d="M262.02598184812814,728.1175080500543L269.5411021169275,823.2148058060557L309.2780931573361,758.3187979878858Z" fill="#4683d0" stroke="#4683d0"></path><path d="M309.2780931573361,758.3187979878858L269.5411021169275,823.2148058060557L310.84575132932514,788.890816764906Z" fill="#427dce" stroke="#427dce"></path><path d="M309.2780931573361,758.3187979878858L310.84575132932514,788.890816764906L402.5300202704966,811.4738116459921Z" fill="#3878ca" stroke="#3878ca"></path><path d="M309.2780931573361,758.3187979878858L402.5300202704966,811.4738116459921L416.19788526557386,733.356523476541Z" fill="#3075c9" stroke="#3075c9"></path><path d="M416.19788526557386,733.356523476541L402.5300202704966,811.4738116459921L439.5133366668597,823.1423417245969Z" fill="#276bc4" stroke="#276bc4"></path><path d="M416.19788526557386,733.356523476541L439.5133366668597,823.1423417245969L464.61136578116566,738.7154440116137Z" fill="#226cc4" stroke="#226cc4"></path><path d="M464.61136578116566,738.7154440116137L439.5133366668597,823.1423417245969L529.6951748477295,825.5520004592836Z" fill="#1961bf" stroke="#1961bf"></path><path d="M464.61136578116566,738.7154440116137L529.6951748477295,825.5520004592836L535.4702034825459,747.9929614719003Z" fill="#1261bf" stroke="#1261bf"></path><path d="M535.4702034825459,747.9929614719003L529.6951748477295,825.5520004592836L589.9734143447131,811.9707595277578Z" fill="#0856ba" stroke="#0856ba"></path><path d="M535.4702034825459,747.9929614719003L589.9734143447131,811.9707595277578L557.8239749511704,736.3705819426104Z" fill="#065abb" stroke="#065abb"></path><path d="M557.8239749511704,736.3705819426104L589.9734143447131,811.9707595277578L643.9287555590272,739.4006109517068Z" fill="#0055b8" stroke="#0055b8"></path><path d="M643.9287555590272,739.4006109517068L589.9734143447131,811.9707595277578L645.6697173742577,823.1279244879261Z" fill="#004cb5" stroke="#004cb5"></path><path d="M643.9287555590272,739.4006109517068L645.6697173742577,823.1279244879261L688.8948762835935,766.2566712358966Z" fill="#0049b3" stroke="#0049b3"></path><path d="M688.8948762835935,766.2566712358966L645.6697173742577,823.1279244879261L706.0465657152236,818.7646988220513Z" fill="#0042b0" stroke="#0042b0"></path><path d="M688.8948762835935,766.2566712358966L706.0465657152236,818.7646988220513L745.8353225514293,740.7150170160457Z" fill="#0041af" stroke="#0041af"></path><path d="M745.8353225514293,740.7150170160457L706.0465657152236,818.7646988220513L773.6834117257968,797.7331059984863Z" fill="#003bac" stroke="#003bac"></path><path d="M5.34275715239346,838.8295156834647L645.6697173742577,823.1279244879261L529.6951748477295,825.5520004592836Z" fill="#2c68c4" stroke="#2c68c4"></path><path d="M5.34275715239346,838.8295156834647L529.6951748477295,825.5520004592836L135.15598196536303,832.7167891524732Z" fill="#5180d0" stroke="#5180d0"></path><path d="M5.34275715239346,838.8295156834647L135.15598196536303,832.7167891524732L84.54639664851129,829.1812651930377Z" fill="#658ad7" stroke="#658ad7"></path><path d="M135.15598196536303,832.7167891524732L529.6951748477295,825.5520004592836L439.5133366668597,823.1423417245969Z" fill="#326dc6" stroke="#326dc6"></path><path d="M135.15598196536303,832.7167891524732L439.5133366668597,823.1423417245969L269.5411021169275,823.2148058060557Z" fill="#467acd" stroke="#467acd"></path><path d="M135.15598196536303,832.7167891524732L269.5411021169275,823.2148058060557L224.87143727950752,820.8489717682824Z" fill="#5382d1" stroke="#5382d1"></path><path d="M269.5411021169275,823.2148058060557L439.5133366668597,823.1423417245969L402.5300202704966,811.4738116459921Z" fill="#326ec6" stroke="#326ec6"></path><path d="M269.5411021169275,823.2148058060557L402.5300202704966,811.4738116459921L310.84575132932514,788.890816764906Z" fill="#3b76ca" stroke="#3b76ca"></path><path d="M529.6951748477295,825.5520004592836L645.6697173742577,823.1279244879261L589.9734143447131,811.9707595277578Z" fill="#004cb6" stroke="#004cb6"></path></g></svg>